<svg width="512" height="512" viewBox="0 0 512 512" fill="none" xmlns="http://www.w3.org/2000/svg">
<circle cx="256" cy="256" r="256" fill="black"/>
<path d="M198.7 330H144.7V196.5H96.4V159H247V196.5H198.7V330ZM324.273 159C347.673 159 366.773 161.2 381.573 165.6C396.573 170 408.173 178.3 416.373 190.5C424.773 202.7 428.973 220.2 428.973 243C428.973 267.4 424.573 286 415.773 298.8C406.973 311.4 395.173 319.8 380.373 324C365.573 328 346.873 330 324.273 330H264.273V159H324.273ZM364.473 289.2C366.873 286.8 368.573 280.6 369.573 270.6C370.573 260.6 371.073 251.4 371.073 243C371.073 232.4 370.273 224 368.673 217.8C367.273 211.4 364.673 206.3 360.873 202.5C354.873 195.9 344.573 192.6 329.973 192.6C327.373 192.6 323.473 192.8 318.273 193.2V292.8C321.673 293.2 326.973 293.4 334.173 293.4C341.573 293.4 348.073 293.1 353.673 292.5C359.473 291.7 363.073 290.6 364.473 289.2Z" fill="white"/>
</svg>
